<svg xmlns="http://www.w3.org/2000/svg" xmlns:xlink="http://www.w3.org/1999/xlink" width="500" zoomAndPan="magnify" viewBox="0 0 375 374.999991" height="500" preserveAspectRatio="xMidYMid meet" version="1.0"><defs><g/><clipPath id="1b5787c716"><path d="M 55 5.085938 L 318 5.085938 L 318 151 L 55 151 Z M 55 5.085938 " clip-rule="nonzero"/></clipPath></defs><path fill="#62e1e9" d="M 313.671875 96.242188 C 316.257812 98.921875 316.183594 103.195312 313.503906 105.78125 C 310.820312 108.367188 306.550781 108.289062 303.964844 105.609375 C 301.378906 102.929688 301.453125 98.65625 304.136719 96.070312 C 306.820312 93.484375 311.085938 93.5625 313.671875 96.242188 Z M 272.410156 114.195312 C 269.824219 111.511719 269.902344 107.242188 272.582031 104.65625 C 275.261719 102.070312 279.53125 102.144531 282.117188 104.828125 C 284.703125 107.507812 284.628906 111.777344 281.945312 114.363281 C 279.265625 116.953125 274.996094 116.875 272.410156 114.195312 Z M 225.226562 141.699219 C 222.640625 139.015625 222.71875 134.746094 225.394531 132.160156 C 228.078125 129.574219 232.347656 129.652344 234.933594 132.332031 C 237.519531 135.015625 237.441406 139.28125 234.761719 141.871094 C 232.078125 144.457031 227.8125 144.378906 225.226562 141.699219 Z M 231.800781 103.519531 C 229.214844 100.839844 229.296875 96.566406 231.976562 93.980469 C 234.65625 91.394531 238.921875 91.472656 241.511719 94.152344 C 244.097656 96.835938 244.019531 101.105469 241.339844 103.691406 C 238.65625 106.277344 234.390625 106.203125 231.800781 103.519531 Z M 287.929688 155.644531 C 285.34375 152.960938 285.421875 148.691406 288.101562 146.105469 C 290.785156 143.519531 295.050781 143.597656 297.636719 146.277344 C 300.222656 148.957031 300.148438 153.230469 297.464844 155.816406 C 294.785156 158.402344 290.515625 158.324219 287.929688 155.644531 Z M 316.710938 93.3125 C 312.503906 88.953125 305.566406 88.828125 301.207031 93.03125 C 297.003906 97.089844 296.753906 103.683594 300.507812 108.058594 C 299.949219 108.753906 299.386719 109.453125 298.824219 110.152344 C 288.898438 122.40625 278.527344 135.082031 267.253906 147.789062 C 255.960938 160.46875 243.765625 173.234375 229.710938 185.046875 C 228.835938 185.78125 227.988281 186.546875 227.074219 187.261719 L 224.328125 189.390625 C 222.484375 190.804688 220.660156 192.246094 218.785156 193.644531 C 216.84375 194.980469 214.902344 196.320312 212.953125 197.660156 C 211.964844 198.320312 211.027344 199.03125 209.996094 199.644531 L 206.917969 201.496094 L 203.824219 203.347656 C 202.789062 203.960938 201.773438 204.605469 200.671875 205.132812 C 198.503906 206.234375 196.328125 207.335938 194.148438 208.445312 C 189.707031 210.589844 184.957031 212.503906 180.117188 213.960938 C 175.273438 215.460938 170.300781 216.648438 165.234375 217.375 C 160.175781 218.128906 155.042969 218.570312 149.886719 218.519531 C 144.738281 218.484375 139.5625 218.152344 134.441406 217.328125 C 132.675781 217.046875 130.917969 216.707031 129.167969 216.339844 C 130.007812 216.417969 130.847656 216.507812 131.6875 216.5625 C 142.757812 217.261719 153.871094 215.988281 164.375 212.925781 C 169.617188 211.398438 174.734375 209.378906 179.550781 206.964844 C 181.9375 205.722656 184.375 204.578125 186.703125 203.261719 C 189 201.886719 191.285156 200.515625 193.570312 199.144531 C 202.511719 193.375 210.765625 186.847656 218.558594 180.003906 C 222.332031 176.460938 226.210938 173.046875 229.773438 169.378906 C 231.578125 167.566406 233.421875 165.796875 235.175781 163.957031 C 236.925781 162.113281 238.667969 160.273438 240.40625 158.4375 C 242.164062 156.617188 243.835938 154.738281 245.519531 152.875 C 247.199219 151.007812 248.875 149.148438 250.542969 147.296875 C 253.796875 143.519531 257.097656 139.8125 260.257812 136.039062 C 264.835938 130.632812 269.285156 125.242188 273.683594 119.867188 C 277.457031 121.167969 281.804688 120.363281 284.875 117.402344 C 289.234375 113.199219 289.359375 106.257812 285.15625 101.898438 C 280.953125 97.539062 274.011719 97.414062 269.652344 101.617188 C 265.535156 105.589844 265.203125 112.007812 268.722656 116.378906 C 264.433594 121.621094 260.097656 126.871094 255.648438 132.128906 C 252.507812 135.878906 249.242188 139.546875 246.011719 143.292969 C 244.363281 145.125 242.703125 146.96875 241.042969 148.808594 C 239.378906 150.652344 237.722656 152.515625 235.992188 154.304688 C 234.277344 156.117188 232.558594 157.929688 230.835938 159.75 C 229.105469 161.5625 227.296875 163.296875 225.523438 165.078125 C 222.011719 168.691406 218.226562 172.019531 214.535156 175.488281 C 206.929688 182.164062 198.917969 188.492188 190.324219 194.042969 C 188.136719 195.355469 185.941406 196.671875 183.742188 197.988281 C 181.515625 199.25 179.195312 200.332031 176.917969 201.519531 C 172.339844 203.816406 167.59375 205.683594 162.671875 207.125 C 152.835938 209.984375 142.441406 211.183594 132.078125 210.527344 C 127.65625 210.238281 123.242188 209.585938 118.886719 208.625 C 129.269531 209.472656 139.710938 208.335938 149.464844 205.285156 C 153.34375 204.121094 157.039062 202.628906 160.714844 200.851562 C 162.5625 199.914062 164.40625 198.976562 166.242188 198.042969 C 167.175781 197.613281 168.054688 197.042969 168.945312 196.511719 L 171.613281 194.910156 L 174.28125 193.316406 C 175.171875 192.792969 176.007812 192.148438 176.871094 191.570312 C 178.589844 190.390625 180.304688 189.210938 182.015625 188.039062 C 183.6875 186.789062 185.328125 185.484375 186.980469 184.21875 L 189.453125 182.308594 C 190.273438 181.667969 191.050781 180.957031 191.851562 180.289062 C 204.03125 170.054688 215.113281 158.625 225.546875 146.992188 C 229.519531 148.796875 234.359375 148.121094 237.691406 144.90625 C 242.046875 140.703125 242.171875 133.761719 237.96875 129.402344 C 233.765625 125.042969 226.824219 124.917969 222.46875 129.121094 C 218.601562 132.855469 218.074219 138.738281 220.945312 143.066406 C 210.65625 154.535156 199.777344 165.734375 187.980469 175.644531 C 187.203125 176.296875 186.441406 176.988281 185.648438 177.609375 L 183.257812 179.453125 C 181.65625 180.675781 180.070312 181.941406 178.453125 183.148438 C 176.8125 184.277344 175.164062 185.410156 173.511719 186.542969 C 172.683594 187.097656 171.878906 187.71875 171.027344 188.21875 L 168.480469 189.738281 L 165.933594 191.269531 C 165.082031 191.773438 164.246094 192.324219 163.363281 192.726562 C 161.621094 193.613281 159.875 194.5 158.125 195.390625 C 154.664062 197.058594 151.277344 198.429688 147.675781 199.507812 C 135.230469 203.402344 121.570312 203.941406 108.511719 200.914062 C 108.667969 200.925781 108.820312 200.945312 108.976562 200.953125 C 116.894531 201.449219 124.800781 200.535156 132.316406 198.355469 L 135.117188 197.472656 L 137.867188 196.453125 C 138.792969 196.140625 139.667969 195.683594 140.578125 195.316406 C 141.03125 195.113281 141.46875 194.960938 141.941406 194.71875 L 143.359375 193.988281 C 145.25 192.984375 147.167969 192.117188 149.046875 191.050781 C 150.917969 189.929688 152.785156 188.8125 154.644531 187.695312 C 162.042969 182.910156 169.210938 177.273438 176.167969 171.171875 C 179.582031 167.945312 183.054688 164.914062 186.371094 161.5 C 188.039062 159.820312 189.726562 158.207031 191.367188 156.488281 C 193.003906 154.757812 194.636719 153.03125 196.269531 151.3125 C 197.90625 149.617188 199.503906 147.820312 201.105469 146.050781 C 202.703125 144.277344 204.296875 142.507812 205.886719 140.742188 C 209.023438 137.097656 212.175781 133.5625 215.25 129.890625 C 221.117188 122.960938 226.867188 115.988281 232.535156 108.992188 C 236.425781 110.570312 241.050781 109.832031 244.269531 106.730469 C 248.625 102.523438 248.75 95.582031 244.546875 91.222656 C 240.34375 86.863281 233.40625 86.742188 229.046875 90.945312 C 225.066406 94.785156 224.628906 100.898438 227.78125 105.253906 C 225.125 108.539062 222.453125 111.800781 219.761719 115.0625 C 216.753906 118.753906 213.703125 122.332031 210.640625 125.972656 C 207.582031 129.628906 204.464844 133.125 201.355469 136.738281 C 199.78125 138.484375 198.207031 140.230469 196.625 141.984375 C 195.046875 143.738281 193.46875 145.515625 191.851562 147.179688 C 190.25 148.875 188.640625 150.574219 187.023438 152.277344 C 185.410156 153.972656 183.757812 155.550781 182.121094 157.199219 C 178.863281 160.558594 175.480469 163.5 172.144531 166.660156 C 165.375 172.589844 158.449219 178.027344 151.398438 182.589844 C 149.632812 183.652344 147.859375 184.714844 146.085938 185.777344 C 144.308594 186.785156 142.507812 187.59375 140.726562 188.542969 L 139.394531 189.234375 C 138.949219 189.460938 138.558594 189.59375 138.144531 189.78125 C 137.3125 190.113281 136.515625 190.535156 135.667969 190.816406 L 133.160156 191.75 L 130.613281 192.550781 C 123.769531 194.53125 116.578125 195.367188 109.367188 194.917969 C 94.96875 193.964844 80.578125 187.792969 70.121094 177.441406 C 65.066406 172.480469 60.855469 166.660156 57.710938 160.164062 C 57.449219 159.605469 57.191406 159.039062 56.9375 158.476562 C 56.9375 158.476562 56.253906 176.9375 77.1875 197.753906 C 97.882812 218.335938 125.988281 230.3125 154.414062 232.160156 C 168.636719 233.070312 182.953125 231.429688 196.449219 227.492188 L 201.46875 225.902344 C 203.121094 225.320312 204.753906 224.699219 206.394531 224.085938 C 208.035156 223.492188 209.609375 222.75 211.214844 222.074219 C 212 221.726562 212.84375 221.386719 213.574219 221.027344 L 215.757812 219.933594 C 218.640625 218.453125 221.601562 217.035156 224.378906 215.464844 C 227.097656 213.835938 229.804688 212.210938 232.511719 210.589844 C 242.996094 203.832031 252.332031 196.414062 260.96875 188.828125 C 265.09375 184.96875 269.378906 181.167969 273.195312 177.253906 C 275.132812 175.304688 277.136719 173.375 279.003906 171.417969 C 280.863281 169.460938 282.714844 167.507812 284.5625 165.554688 C 285.980469 164.082031 287.324219 162.601562 288.664062 161.117188 C 292.554688 162.695312 297.175781 161.957031 300.394531 158.855469 C 304.753906 154.648438 304.878906 147.707031 300.675781 143.347656 C 296.46875 138.988281 289.53125 138.863281 285.171875 143.070312 C 281.195312 146.902344 280.753906 153.015625 283.902344 157.367188 C 282.675781 158.722656 281.441406 160.082031 280.144531 161.425781 C 278.324219 163.347656 276.496094 165.277344 274.660156 167.210938 C 272.820312 169.140625 270.855469 171.03125 268.945312 172.949219 C 265.183594 176.8125 260.992188 180.523438 256.945312 184.3125 C 248.5 191.734375 239.402344 198.953125 229.265625 205.488281 C 226.65625 207.050781 224.039062 208.621094 221.417969 210.191406 C 218.742188 211.703125 215.898438 213.0625 213.125 214.488281 L 211.03125 215.539062 C 210.324219 215.890625 209.53125 216.207031 208.78125 216.539062 C 207.253906 217.179688 205.761719 217.890625 204.195312 218.453125 C 202.636719 219.035156 201.082031 219.625 199.515625 220.179688 L 194.746094 221.6875 C 181.917969 225.433594 168.324219 226.988281 154.808594 226.125 C 149.585938 225.785156 144.378906 225.074219 139.230469 224.019531 C 142.777344 224.367188 146.332031 224.542969 149.878906 224.566406 C 155.339844 224.621094 160.78125 224.15625 166.140625 223.355469 C 171.507812 222.582031 176.777344 221.324219 181.90625 219.738281 C 187.023438 218.199219 192.078125 216.15625 196.742188 213.90625 C 199.015625 212.75 201.289062 211.597656 203.550781 210.449219 C 204.703125 209.898438 205.757812 209.230469 206.832031 208.589844 L 210.046875 206.667969 L 213.25 204.742188 C 214.320312 204.101562 215.289062 203.371094 216.3125 202.691406 C 218.328125 201.300781 220.335938 199.917969 222.34375 198.535156 C 224.277344 197.09375 226.15625 195.613281 228.050781 194.15625 L 230.882812 191.960938 C 231.820312 191.226562 232.683594 190.445312 233.585938 189.6875 C 248 177.570312 260.367188 164.609375 271.773438 151.804688 C 283.160156 138.972656 293.574219 126.238281 303.523438 113.957031 C 304.210938 113.101562 304.894531 112.25 305.582031 111.398438 C 309.269531 112.539062 313.453125 111.691406 316.429688 108.816406 C 320.789062 104.613281 320.914062 97.671875 316.710938 93.3125 " fill-opacity="1" fill-rule="nonzero"/><g clip-path="url(#1b5787c716)"><path fill="#0652e9" d="M 61.160156 141.914062 C 58.574219 139.230469 58.652344 134.960938 61.332031 132.375 C 64.011719 129.789062 68.28125 129.867188 70.867188 132.546875 C 73.453125 135.230469 73.378906 139.5 70.695312 142.085938 C 68.015625 144.671875 63.746094 144.597656 61.160156 141.914062 Z M 102.425781 123.960938 C 105.011719 126.644531 104.933594 130.914062 102.253906 133.503906 C 99.570312 136.089844 95.300781 136.011719 92.714844 133.328125 C 90.128906 130.648438 90.207031 126.378906 92.886719 123.792969 C 95.570312 121.207031 99.839844 121.28125 102.425781 123.960938 Z M 149.609375 96.460938 C 152.195312 99.140625 152.117188 103.410156 149.4375 105.996094 C 146.757812 108.582031 142.488281 108.507812 139.902344 105.824219 C 137.316406 103.144531 137.390625 98.875 140.074219 96.285156 C 142.753906 93.699219 147.023438 93.777344 149.609375 96.460938 Z M 143.03125 134.636719 C 145.617188 137.320312 145.539062 141.589844 142.859375 144.175781 C 140.179688 146.761719 135.910156 146.683594 133.324219 144.003906 C 130.738281 141.320312 130.8125 137.050781 133.496094 134.464844 C 136.175781 131.878906 140.445312 131.957031 143.03125 134.636719 Z M 86.902344 82.511719 C 89.492188 85.191406 89.414062 89.464844 86.734375 92.050781 C 84.050781 94.636719 79.78125 94.558594 77.195312 91.878906 C 74.609375 89.199219 74.6875 84.925781 77.367188 82.339844 C 80.050781 79.753906 84.320312 79.832031 86.902344 82.511719 Z M 58.125 144.84375 C 62.328125 149.203125 69.265625 149.328125 73.625 145.121094 C 77.828125 141.066406 78.082031 134.472656 74.324219 130.101562 C 74.886719 129.402344 75.445312 128.703125 76.007812 128.003906 C 85.9375 115.75 96.304688 103.074219 107.578125 90.367188 C 118.875 77.6875 131.070312 64.921875 145.121094 53.109375 C 146 52.375 146.847656 51.609375 147.757812 50.894531 L 150.507812 48.765625 C 152.351562 47.351562 154.171875 45.910156 156.046875 44.511719 C 157.988281 43.175781 159.933594 41.835938 161.882812 40.496094 C 162.867188 39.835938 163.808594 39.125 164.835938 38.511719 L 167.917969 36.660156 L 171.011719 34.808594 C 172.046875 34.195312 173.058594 33.550781 174.164062 33.023438 C 176.332031 31.921875 178.507812 30.820312 180.683594 29.710938 C 185.128906 27.566406 189.875 25.652344 194.714844 24.191406 C 199.558594 22.695312 204.535156 21.507812 209.597656 20.78125 C 214.65625 20.027344 219.792969 19.585938 224.949219 19.636719 C 230.097656 19.671875 235.273438 20.003906 240.394531 20.828125 C 242.160156 21.109375 243.917969 21.449219 245.667969 21.816406 C 244.828125 21.738281 243.988281 21.648438 243.148438 21.59375 C 232.074219 20.890625 220.964844 22.171875 210.460938 25.230469 C 205.214844 26.761719 200.097656 28.777344 195.285156 31.195312 C 192.898438 32.433594 190.457031 33.578125 188.128906 34.894531 C 185.835938 36.269531 183.546875 37.640625 181.261719 39.011719 C 172.324219 44.78125 164.070312 51.308594 156.273438 58.152344 C 152.503906 61.695312 148.625 65.109375 145.058594 68.777344 C 143.257812 70.589844 141.410156 72.363281 139.660156 74.199219 C 137.910156 76.042969 136.167969 77.882812 134.429688 79.71875 C 132.671875 81.539062 130.996094 83.417969 129.316406 85.28125 C 127.636719 87.148438 125.960938 89.003906 124.289062 90.859375 C 121.035156 94.636719 117.738281 98.34375 114.578125 102.117188 C 110 107.523438 105.546875 112.914062 101.152344 118.292969 C 97.378906 116.988281 93.03125 117.792969 89.960938 120.753906 C 85.601562 124.957031 85.476562 131.898438 89.679688 136.257812 C 93.882812 140.617188 100.824219 140.742188 105.179688 136.539062 C 109.300781 132.566406 109.632812 126.148438 106.109375 121.777344 C 110.398438 116.535156 114.738281 111.285156 119.1875 106.027344 C 122.328125 102.277344 125.59375 98.609375 128.820312 94.863281 C 130.472656 93.03125 132.128906 91.191406 133.792969 89.347656 C 135.457031 87.503906 137.109375 85.640625 138.84375 83.851562 C 140.558594 82.042969 142.277344 80.226562 144 78.410156 C 145.730469 76.59375 147.539062 74.863281 149.308594 73.078125 C 152.820312 69.46875 156.605469 66.140625 160.300781 62.664062 C 167.90625 55.992188 175.914062 49.664062 184.511719 44.113281 C 186.699219 42.800781 188.894531 41.488281 191.089844 40.167969 C 193.316406 38.90625 195.640625 37.824219 197.917969 36.636719 C 202.492188 34.339844 207.238281 32.46875 212.164062 31.03125 C 222 28.171875 232.394531 26.972656 242.753906 27.628906 C 247.179688 27.921875 251.589844 28.570312 255.945312 29.53125 C 245.566406 28.683594 235.121094 29.820312 225.371094 32.871094 C 221.488281 34.035156 217.796875 35.527344 214.117188 37.304688 C 212.273438 38.242188 210.429688 39.179688 208.59375 40.113281 C 207.660156 40.542969 206.777344 41.113281 205.890625 41.644531 L 203.21875 43.246094 L 200.554688 44.839844 C 199.664062 45.367188 198.828125 46.007812 197.960938 46.585938 C 196.242188 47.765625 194.53125 48.945312 192.820312 50.121094 C 191.148438 51.367188 189.507812 52.671875 187.855469 53.941406 L 185.382812 55.847656 C 184.5625 56.488281 183.78125 57.199219 182.980469 57.867188 C 170.804688 68.101562 159.722656 79.53125 149.289062 91.164062 C 145.316406 89.359375 140.476562 90.035156 137.144531 93.25 C 132.785156 97.453125 132.660156 104.394531 136.863281 108.753906 C 141.066406 113.113281 148.007812 113.238281 152.367188 109.035156 C 156.234375 105.300781 156.761719 99.414062 153.890625 95.09375 C 164.179688 83.621094 175.058594 72.425781 186.855469 62.511719 C 187.632812 61.859375 188.390625 61.167969 189.1875 60.546875 L 191.578125 58.703125 C 193.175781 57.480469 194.765625 56.214844 196.378906 55.007812 C 198.023438 53.878906 199.671875 52.75 201.320312 51.613281 C 202.148438 51.0625 202.957031 50.4375 203.808594 49.9375 L 206.355469 48.417969 L 208.902344 46.890625 C 209.753906 46.382812 210.589844 45.835938 211.472656 45.429688 C 213.214844 44.542969 214.960938 43.65625 216.710938 42.769531 C 220.171875 41.097656 223.554688 39.726562 227.15625 38.648438 C 239.605469 34.753906 253.265625 34.21875 266.320312 37.242188 C 266.164062 37.230469 266.015625 37.210938 265.859375 37.203125 C 257.9375 36.707031 250.035156 37.621094 242.519531 39.800781 L 239.71875 40.683594 L 236.964844 41.707031 C 236.039062 42.015625 235.164062 42.472656 234.257812 42.839844 C 233.800781 43.042969 233.367188 43.199219 232.894531 43.4375 L 231.472656 44.171875 C 229.582031 45.171875 227.664062 46.042969 225.789062 47.105469 C 223.917969 48.226562 222.050781 49.34375 220.1875 50.460938 C 212.792969 55.246094 205.621094 60.886719 198.667969 66.980469 C 195.25 70.210938 191.777344 73.238281 188.464844 76.65625 C 186.796875 78.335938 185.109375 79.949219 183.46875 81.667969 C 181.828125 83.398438 180.195312 85.125 178.566406 86.84375 C 176.925781 88.539062 175.332031 90.335938 173.730469 92.105469 C 172.132812 93.882812 170.539062 95.648438 168.949219 97.414062 C 165.8125 101.058594 162.660156 104.59375 159.582031 108.269531 C 153.71875 115.199219 147.96875 122.167969 142.300781 129.164062 C 138.40625 127.585938 133.785156 128.324219 130.566406 131.425781 C 126.207031 135.632812 126.082031 142.574219 130.285156 146.933594 C 134.488281 151.292969 141.429688 151.417969 145.789062 147.210938 C 149.769531 143.375 150.207031 137.257812 147.054688 132.902344 C 149.710938 129.617188 152.382812 126.355469 155.074219 123.09375 C 158.082031 119.402344 161.132812 115.828125 164.191406 112.183594 C 167.25 108.527344 170.367188 105.035156 173.480469 101.417969 C 175.050781 99.671875 176.628906 97.925781 178.207031 96.171875 C 179.789062 94.417969 181.367188 92.640625 182.980469 90.976562 C 184.585938 89.28125 186.195312 87.582031 187.808594 85.878906 C 189.425781 84.183594 191.078125 82.609375 192.714844 80.957031 C 195.972656 77.597656 199.355469 74.65625 202.691406 71.496094 C 209.457031 65.566406 216.382812 60.128906 223.433594 55.566406 C 225.203125 54.503906 226.972656 53.445312 228.75 52.378906 C 230.527344 51.371094 232.324219 50.5625 234.105469 49.613281 L 235.441406 48.921875 C 235.886719 48.695312 236.273438 48.5625 236.691406 48.375 C 237.519531 48.042969 238.320312 47.621094 239.164062 47.335938 L 241.671875 46.40625 L 244.222656 45.601562 C 251.066406 43.625 258.257812 42.789062 265.46875 43.238281 C 279.867188 44.191406 294.253906 50.363281 304.714844 60.71875 C 309.769531 65.675781 313.980469 71.5 317.121094 77.992188 C 317.386719 78.550781 317.644531 79.117188 317.898438 79.679688 C 317.898438 79.679688 318.582031 61.214844 297.648438 40.402344 C 276.953125 19.820312 248.84375 7.84375 220.421875 5.996094 C 206.195312 5.085938 191.882812 6.722656 178.386719 10.667969 L 173.363281 12.253906 C 171.714844 12.835938 170.078125 13.457031 168.441406 14.070312 C 166.796875 14.664062 165.222656 15.40625 163.617188 16.082031 C 162.835938 16.429688 161.992188 16.769531 161.257812 17.128906 L 159.078125 18.222656 C 156.195312 19.703125 153.234375 21.121094 150.457031 22.695312 C 147.738281 24.320312 145.027344 25.945312 142.320312 27.566406 C 131.839844 34.324219 122.5 41.742188 113.867188 49.328125 C 109.738281 53.1875 105.457031 56.988281 101.636719 60.902344 C 99.699219 62.851562 97.699219 64.78125 95.828125 66.738281 C 93.972656 68.695312 92.121094 70.652344 90.273438 72.601562 C 88.851562 74.074219 87.507812 75.558594 86.171875 77.039062 C 82.277344 75.464844 77.65625 76.199219 74.441406 79.300781 C 70.082031 83.507812 69.957031 90.449219 74.160156 94.808594 C 78.363281 99.167969 85.304688 99.292969 89.660156 95.089844 C 93.636719 91.253906 94.078125 85.140625 90.933594 80.789062 C 92.160156 79.433594 93.390625 78.074219 94.6875 76.730469 C 96.511719 74.808594 98.339844 72.878906 100.171875 70.945312 C 102.015625 69.015625 103.980469 67.125 105.886719 65.207031 C 109.652344 61.34375 113.84375 57.632812 117.890625 53.84375 C 126.335938 46.421875 135.429688 39.203125 145.566406 32.667969 C 148.179688 31.105469 150.792969 29.535156 153.417969 27.964844 C 156.09375 26.453125 158.9375 25.09375 161.710938 23.667969 L 163.804688 22.617188 C 164.507812 22.269531 165.304688 21.949219 166.054688 21.617188 C 167.578125 20.976562 169.074219 20.265625 170.640625 19.703125 C 172.195312 19.125 173.75 18.53125 175.320312 17.976562 L 180.089844 16.46875 C 192.914062 12.726562 206.511719 11.164062 220.027344 12.027344 C 225.246094 12.371094 230.457031 13.082031 235.601562 14.136719 C 232.058594 13.789062 228.5 13.613281 224.957031 13.585938 C 219.496094 13.535156 214.054688 14 208.695312 14.800781 C 203.328125 15.574219 198.058594 16.832031 192.929688 18.417969 C 187.808594 19.957031 182.757812 21.996094 178.09375 24.25 C 175.816406 25.402344 173.546875 26.558594 171.28125 27.707031 C 170.128906 28.257812 169.078125 28.929688 168 29.566406 L 164.785156 31.488281 L 161.582031 33.414062 C 160.515625 34.054688 159.546875 34.785156 158.523438 35.464844 C 156.507812 36.851562 154.496094 38.238281 152.488281 39.621094 C 150.554688 41.0625 148.679688 42.546875 146.78125 44.003906 L 143.953125 46.195312 C 143.015625 46.929688 142.148438 47.710938 141.246094 48.464844 C 126.835938 60.582031 114.464844 73.546875 103.058594 86.351562 C 91.675781 99.183594 81.261719 111.917969 71.308594 124.199219 C 70.621094 125.054688 69.9375 125.90625 69.253906 126.757812 C 65.5625 125.617188 61.378906 126.464844 58.402344 129.335938 C 54.046875 133.542969 53.921875 140.484375 58.125 144.84375 " fill-opacity="1" fill-rule="nonzero"/></g><g fill="#ffffff" fill-opacity="1"><g transform="translate(45.172368, 312.221213)"><g><path d="M 32.933594 -46.0625 L -0.382812 -46.0625 L -0.382812 -37.078125 L 11.285156 -37.078125 L 11.285156 0 L 21.34375 0 L 21.34375 -37.078125 L 32.933594 -37.078125 Z M 32.933594 -46.0625 "/></g></g></g><g fill="#ffffff" fill-opacity="1"><g transform="translate(80.423756, 312.221213)"><g><path d="M 32.628906 -37.15625 L 32.628906 -46.0625 L 4.914062 -46.0625 L 4.914062 0 L 32.628906 0 L 32.628906 -8.90625 L 15.046875 -8.90625 L 15.046875 -18.578125 L 30.09375 -18.578125 L 30.09375 -27.484375 L 15.046875 -27.484375 L 15.046875 -37.15625 Z M 32.628906 -37.15625 "/></g></g></g><g fill="#ffffff" fill-opacity="1"><g transform="translate(118.899327, 312.221213)"><g><path d="M 26.484375 0.613281 C 35.621094 0.613281 43.527344 -4.53125 47.445312 -12.054688 L 38.691406 -16.582031 C 36.464844 -12.207031 31.9375 -9.289062 26.484375 -9.289062 C 18.730469 -9.289062 12.820312 -15.277344 12.820312 -23.03125 C 12.820312 -30.785156 18.730469 -36.773438 26.484375 -36.773438 C 31.9375 -36.773438 36.464844 -33.855469 38.691406 -29.480469 L 47.445312 -34.007812 C 43.527344 -41.53125 35.621094 -46.675781 26.484375 -46.675781 C 13.433594 -46.675781 2.839844 -36.082031 2.839844 -23.03125 C 2.839844 -9.980469 13.433594 0.613281 26.484375 0.613281 Z M 26.484375 0.613281 "/></g></g></g><g fill="#ffffff" fill-opacity="1"><g transform="translate(171.039255, 312.221213)"><g><path d="M 33.394531 -46.0625 L 33.394531 -27.558594 L 14.664062 -27.558594 L 14.664062 -46.0625 L 4.53125 -46.0625 L 4.53125 0 L 14.664062 0 L 14.664062 -18.578125 L 33.394531 -18.578125 L 33.394531 0 L 43.453125 0 L 43.453125 -46.0625 Z M 33.394531 -46.0625 "/></g></g></g><g fill="#ffffff" fill-opacity="1"><g transform="translate(221.797389, 312.221213)"><g><path d="M 37.617188 -46.0625 L 37.617188 -15.585938 L 14.96875 -46.0625 L 4.53125 -46.0625 L 4.53125 0 L 14.664062 0 L 14.664062 -30.554688 L 37.234375 0 L 47.675781 0 L 47.675781 -46.0625 Z M 37.617188 -46.0625 "/></g></g></g><g fill="#ffffff" fill-opacity="1"><g transform="translate(276.777653, 312.221213)"><g><path d="M 26.484375 0.613281 C 39.613281 0.613281 50.128906 -9.980469 50.128906 -23.03125 C 50.128906 -36.082031 39.613281 -46.675781 26.484375 -46.675781 C 13.433594 -46.675781 2.839844 -36.082031 2.839844 -23.03125 C 2.839844 -9.980469 13.433594 0.613281 26.484375 0.613281 Z M 26.484375 -9.289062 C 18.730469 -9.289062 12.820312 -15.277344 12.820312 -23.03125 C 12.820312 -30.785156 18.730469 -36.773438 26.484375 -36.773438 C 34.316406 -36.773438 40.226562 -30.785156 40.226562 -23.03125 C 40.226562 -15.277344 34.316406 -9.289062 26.484375 -9.289062 Z M 26.484375 -9.289062 "/></g></g></g><g fill="#ffffff" fill-opacity="1"><g transform="translate(9.606871, 362.674409)"><g><path d="M 7.371094 0.261719 C 10.726562 0.261719 13.457031 -1.742188 13.457031 -5.199219 C 13.457031 -11.910156 3.851562 -10.265625 3.851562 -14.972656 C 3.851562 -16.945312 5.460938 -17.898438 7.304688 -17.898438 C 8.816406 -17.898438 10.070312 -17.273438 10.859375 -16.15625 L 12.503906 -17.539062 C 11.417969 -18.921875 9.507812 -20.003906 7.238281 -20.003906 C 4.210938 -20.003906 1.742188 -18.03125 1.742188 -14.808594 C 1.742188 -8.457031 11.351562 -10.035156 11.351562 -5.132812 C 11.351562 -3.027344 9.609375 -1.84375 7.402344 -1.84375 C 5.164062 -1.84375 3.554688 -3.058594 2.863281 -4.871094 L 0.953125 -3.75 C 1.972656 -1.316406 4.441406 0.261719 7.371094 0.261719 Z M 7.371094 0.261719 "/></g></g></g><g fill="#ffffff" fill-opacity="1"><g transform="translate(32.837475, 362.674409)"><g><path d="M 11.746094 0.261719 C 17.375 0.261719 21.882812 -4.277344 21.882812 -9.871094 C 21.882812 -15.464844 17.375 -20.003906 11.746094 -20.003906 C 6.152344 -20.003906 1.613281 -15.464844 1.613281 -9.871094 C 1.613281 -4.277344 6.152344 0.261719 11.746094 0.261719 Z M 11.746094 -1.84375 C 7.304688 -1.84375 3.71875 -5.394531 3.71875 -9.871094 C 3.71875 -14.347656 7.304688 -17.898438 11.746094 -17.898438 C 16.222656 -17.898438 19.777344 -14.347656 19.777344 -9.871094 C 19.777344 -5.394531 16.222656 -1.84375 11.746094 -1.84375 Z M 11.746094 -1.84375 "/></g></g></g><g fill="#ffffff" fill-opacity="1"><g transform="translate(65.182565, 362.674409)"><g><path d="M 13.359375 -17.703125 L 13.359375 -19.742188 L 2.566406 -19.742188 L 2.566406 0 L 4.671875 0 L 4.671875 -8.851562 L 12.242188 -8.851562 L 12.242188 -10.890625 L 4.671875 -10.890625 L 4.671875 -17.703125 Z M 13.359375 -17.703125 "/></g></g></g><g fill="#ffffff" fill-opacity="1"><g transform="translate(87.95251, 362.674409)"><g><path d="M 13.328125 -19.742188 L 0.296875 -19.742188 L 0.296875 -17.636719 L 5.757812 -17.636719 L 5.757812 0 L 7.863281 0 L 7.863281 -17.636719 L 13.328125 -17.636719 Z M 13.328125 -19.742188 "/></g></g></g><g fill="#ffffff" fill-opacity="1"><g transform="translate(110.393418, 362.674409)"><g><path d="M 24.644531 -19.742188 L 19.578125 -3.519531 L 14.773438 -19.742188 L 11.8125 -19.742188 L 7.074219 -3.554688 L 2.039062 -19.742188 L -0.199219 -19.742188 L 5.988281 0 L 8.226562 0 L 13.292969 -17.503906 L 18.460938 0 L 20.664062 0 L 26.816406 -19.742188 Z M 24.644531 -19.742188 "/></g></g></g><g fill="#ffffff" fill-opacity="1"><g transform="translate(145.831495, 362.674409)"><g><path d="M 14.3125 0 L 16.617188 0 L 9.476562 -19.742188 L 7.140625 -19.742188 L 0 0 L 2.304688 0 L 3.914062 -4.605469 L 12.699219 -4.605469 Z M 4.605469 -6.613281 L 8.324219 -17.242188 L 12.011719 -6.613281 Z M 4.605469 -6.613281 "/></g></g></g><g fill="#ffffff" fill-opacity="1"><g transform="translate(171.266682, 362.674409)"><g><path d="M 10.398438 -9.015625 C 12.996094 -9.378906 14.972656 -11.550781 14.972656 -14.214844 C 14.972656 -17.308594 12.503906 -19.742188 9.476562 -19.742188 L 2.402344 -19.742188 L 2.402344 0 L 4.507812 0 L 4.507812 -8.917969 L 8.226562 -8.917969 L 13.820312 0 L 16.222656 0 Z M 4.507812 -10.925781 L 4.507812 -17.636719 L 9.34375 -17.636719 C 11.320312 -17.636719 12.867188 -16.253906 12.867188 -14.28125 C 12.867188 -12.273438 11.351562 -10.925781 9.34375 -10.925781 Z M 4.507812 -10.925781 "/></g></g></g><g fill="#ffffff" fill-opacity="1"><g transform="translate(196.603161, 362.674409)"><g><path d="M 13.359375 -17.703125 L 13.359375 -19.742188 L 2.566406 -19.742188 L 2.566406 0 L 13.359375 0 L 13.359375 -2.039062 L 4.671875 -2.039062 L 4.671875 -8.851562 L 12.242188 -8.851562 L 12.242188 -10.890625 L 4.671875 -10.890625 L 4.671875 -17.703125 Z M 13.359375 -17.703125 "/></g></g></g><g fill="#ffffff" fill-opacity="1"><g transform="translate(220.755082, 362.674409)"><g/></g></g><g fill="#ffffff" fill-opacity="1"><g transform="translate(237.503518, 362.674409)"><g><path d="M 15.398438 -19.742188 L 15.398438 -10.925781 L 4.507812 -10.925781 L 4.507812 -19.742188 L 2.402344 -19.742188 L 2.402344 0 L 4.507812 0 L 4.507812 -8.816406 L 15.398438 -8.816406 L 15.398438 0 L 17.503906 0 L 17.503906 -19.742188 Z M 15.398438 -19.742188 "/></g></g></g><g fill="#ffffff" fill-opacity="1"><g transform="translate(266.229125, 362.674409)"><g><path d="M 11.746094 0.261719 C 17.375 0.261719 21.882812 -4.277344 21.882812 -9.871094 C 21.882812 -15.464844 17.375 -20.003906 11.746094 -20.003906 C 6.152344 -20.003906 1.613281 -15.464844 1.613281 -9.871094 C 1.613281 -4.277344 6.152344 0.261719 11.746094 0.261719 Z M 11.746094 -1.84375 C 7.304688 -1.84375 3.71875 -5.394531 3.71875 -9.871094 C 3.71875 -14.347656 7.304688 -17.898438 11.746094 -17.898438 C 16.222656 -17.898438 19.777344 -14.347656 19.777344 -9.871094 C 19.777344 -5.394531 16.222656 -1.84375 11.746094 -1.84375 Z M 11.746094 -1.84375 "/></g></g></g><g fill="#ffffff" fill-opacity="1"><g transform="translate(298.574226, 362.674409)"><g><path d="M 9.707031 0.261719 C 14.015625 0.261719 17.144531 -2.597656 17.144531 -6.480469 L 17.144531 -19.742188 L 15.039062 -19.742188 L 15.039062 -6.8125 C 15.039062 -3.949219 12.765625 -1.84375 9.707031 -1.84375 C 6.648438 -1.84375 4.410156 -3.949219 4.410156 -6.8125 L 4.410156 -19.742188 L 2.304688 -19.742188 L 2.304688 -6.480469 C 2.304688 -2.597656 5.429688 0.261719 9.707031 0.261719 Z M 9.707031 0.261719 "/></g></g></g><g fill="#ffffff" fill-opacity="1"><g transform="translate(326.839174, 362.674409)"><g><path d="M 7.371094 0.261719 C 10.726562 0.261719 13.457031 -1.742188 13.457031 -5.199219 C 13.457031 -11.910156 3.851562 -10.265625 3.851562 -14.972656 C 3.851562 -16.945312 5.460938 -17.898438 7.304688 -17.898438 C 8.816406 -17.898438 10.070312 -17.273438 10.859375 -16.15625 L 12.503906 -17.539062 C 11.417969 -18.921875 9.507812 -20.003906 7.238281 -20.003906 C 4.210938 -20.003906 1.742188 -18.03125 1.742188 -14.808594 C 1.742188 -8.457031 11.351562 -10.035156 11.351562 -5.132812 C 11.351562 -3.027344 9.609375 -1.84375 7.402344 -1.84375 C 5.164062 -1.84375 3.554688 -3.058594 2.863281 -4.871094 L 0.953125 -3.75 C 1.972656 -1.316406 4.441406 0.261719 7.371094 0.261719 Z M 7.371094 0.261719 "/></g></g></g><g fill="#ffffff" fill-opacity="1"><g transform="translate(350.069766, 362.674409)"><g><path d="M 13.359375 -17.703125 L 13.359375 -19.742188 L 2.566406 -19.742188 L 2.566406 0 L 13.359375 0 L 13.359375 -2.039062 L 4.671875 -2.039062 L 4.671875 -8.851562 L 12.242188 -8.851562 L 12.242188 -10.890625 L 4.671875 -10.890625 L 4.671875 -17.703125 Z M 13.359375 -17.703125 "/></g></g></g></svg>