<svg xmlns="http://www.w3.org/2000/svg" xmlns:xlink="http://www.w3.org/1999/xlink" width="400" height="200" viewBox="0 0 400 200"><rect width="100%" height="100%" fill="#DDDDDD"/><path d="M83.04 104.90L95.14 104.90L95.14 91.89Q95.14 90.05 95.39 87.82L95.39 87.82L83.04 104.90ZM101.06 104.90L106.06 104.90L106.06 108.83Q106.06 109.38 105.70 109.78Q105.34 110.18 104.69 110.18L104.69 110.18L101.06 110.18L101.06 119.88L95.14 119.88L95.14 110.18L78.37 110.18Q77.68 110.18 77.16 109.75Q76.64 109.32 76.50 108.69L76.50 108.69L75.78 105.25L94.62 80.09L101.06 80.09L101.06 104.90ZM137.99 100L137.99 100Q137.99 105.20 136.87 109.03Q135.76 112.87 133.79 115.37Q131.83 117.88 129.15 119.10Q126.47 120.32 123.36 120.32L123.36 120.32Q120.25 120.32 117.60 119.10Q114.94 117.88 112.99 115.37Q111.04 112.87 109.94 109.03Q108.84 105.20 108.84 100L108.84 100Q108.84 94.78 109.94 90.95Q111.04 87.13 112.99 84.63Q114.94 82.13 117.60 80.90Q120.25 79.68 123.36 79.68L123.36 79.68Q126.47 79.68 129.15 80.90Q131.83 82.13 133.79 84.63Q135.76 87.13 136.87 90.95Q137.99 94.78 137.99 100ZM130.97 100L130.97 100Q130.97 95.68 130.34 92.85Q129.71 90.02 128.65 88.34Q127.59 86.66 126.22 85.99Q124.84 85.31 123.36 85.31L123.36 85.31Q121.90 85.31 120.54 85.99Q119.18 86.66 118.13 88.34Q117.09 90.02 116.47 92.85Q115.85 95.68 115.85 100L115.85 100Q115.85 104.32 116.47 107.15Q117.09 109.98 118.13 111.66Q119.18 113.34 120.54 114.01Q121.90 114.69 123.36 114.69L123.36 114.69Q124.84 114.69 126.22 114.01Q127.59 113.34 128.65 111.66Q129.71 109.98 130.34 107.15Q130.97 104.32 130.97 100ZM169.89 100L169.89 100Q169.89 105.20 168.77 109.03Q167.66 112.87 165.69 115.37Q163.73 117.88 161.05 119.10Q158.37 120.32 155.26 120.32L155.26 120.32Q152.15 120.32 149.50 119.10Q146.84 117.88 144.89 115.37Q142.94 112.87 141.84 109.03Q140.74 105.20 140.74 100L140.74 100Q140.74 94.78 141.84 90.95Q142.94 87.13 144.89 84.63Q146.84 82.13 149.50 80.90Q152.15 79.68 155.26 79.68L155.26 79.68Q158.37 79.68 161.05 80.90Q163.73 82.13 165.69 84.63Q167.66 87.13 168.77 90.95Q169.89 94.78 169.89 100ZM162.88 100L162.88 100Q162.88 95.68 162.24 92.85Q161.61 90.02 160.55 88.34Q159.49 86.66 158.12 85.99Q156.74 85.31 155.26 85.31L155.26 85.31Q153.80 85.31 152.44 85.99Q151.08 86.66 150.03 88.34Q148.99 90.02 148.37 92.85Q147.75 95.68 147.75 100L147.75 100Q147.75 104.32 148.37 107.15Q148.99 109.98 150.03 111.66Q151.08 113.34 152.44 114.01Q153.80 114.69 155.26 114.69L155.26 114.69Q156.74 114.69 158.12 114.01Q159.49 113.34 160.55 111.66Q161.61 109.98 162.24 107.15Q162.88 104.32 162.88 100ZM213.56 110.78L209.96 114.33L200.63 105.01L191.23 114.38L187.63 110.84L197.03 101.40L188.07 92.44L191.64 88.86L200.61 97.83L209.52 88.92L213.15 92.49L204.21 101.43L213.56 110.78ZM246.67 113.56L256.87 113.56Q257.97 113.56 258.62 114.18Q259.26 114.80 259.26 115.81L259.26 115.81L259.26 119.88L231.98 119.88L231.98 117.63Q231.98 116.94 232.27 116.18Q232.56 115.43 233.19 114.82L233.19 114.82L245.27 102.72Q246.78 101.18 247.97 99.78Q249.17 98.38 249.97 97.00Q250.77 95.63 251.19 94.21Q251.62 92.80 251.62 91.23L251.62 91.23Q251.62 89.80 251.21 88.71Q250.79 87.63 250.04 86.88Q249.28 86.14 248.22 85.77Q247.16 85.40 245.84 85.40L245.84 85.40Q244.63 85.40 243.60 85.74Q242.57 86.09 241.77 86.70Q240.98 87.32 240.43 88.15Q239.88 88.97 239.60 89.96L239.60 89.96Q239.13 91.23 238.39 91.64Q237.65 92.05 236.25 91.83L236.25 91.83L232.67 91.20Q233.08 88.34 234.27 86.18Q235.45 84.02 237.22 82.58Q239.00 81.14 241.29 80.41Q243.59 79.68 246.23 79.68L246.23 79.68Q248.98 79.68 251.26 80.49Q253.54 81.30 255.17 82.78Q256.79 84.27 257.70 86.36Q258.60 88.45 258.60 91.01L258.60 91.01Q258.60 93.21 257.96 95.08Q257.31 96.95 256.22 98.65Q255.14 100.36 253.68 101.95Q252.22 103.55 250.63 105.20L250.63 105.20L241.66 114.36Q242.96 113.97 244.23 113.76Q245.51 113.56 246.67 113.56L246.67 113.56ZM292.32 100L292.32 100Q292.32 105.20 291.20 109.03Q290.09 112.87 288.12 115.37Q286.16 117.88 283.48 119.10Q280.80 120.32 277.69 120.32L277.69 120.32Q274.58 120.32 271.93 119.10Q269.27 117.88 267.32 115.37Q265.37 112.87 264.27 109.03Q263.17 105.20 263.17 100L263.17 100Q263.17 94.78 264.27 90.95Q265.37 87.13 267.32 84.63Q269.27 82.13 271.93 80.90Q274.58 79.68 277.69 79.68L277.69 79.68Q280.80 79.68 283.48 80.90Q286.16 82.13 288.12 84.63Q290.09 87.13 291.20 90.95Q292.32 94.78 292.32 100ZM285.31 100L285.31 100Q285.31 95.68 284.67 92.85Q284.04 90.02 282.98 88.34Q281.92 86.66 280.55 85.99Q279.17 85.31 277.69 85.31L277.69 85.31Q276.23 85.31 274.87 85.99Q273.51 86.66 272.46 88.34Q271.42 90.02 270.80 92.85Q270.18 95.68 270.18 100L270.18 100Q270.18 104.32 270.80 107.15Q271.42 109.98 272.46 111.66Q273.51 113.34 274.87 114.01Q276.23 114.69 277.69 114.69L277.69 114.69Q279.17 114.69 280.55 114.01Q281.92 113.34 282.98 111.66Q284.04 109.98 284.67 107.15Q285.31 104.32 285.31 100ZM324.22 100L324.22 100Q324.22 105.20 323.10 109.03Q321.99 112.87 320.02 115.37Q318.06 117.88 315.38 119.10Q312.69 120.32 309.59 120.32L309.59 120.32Q306.48 120.32 303.83 119.10Q301.17 117.88 299.22 115.37Q297.27 112.87 296.17 109.03Q295.07 105.20 295.07 100L295.07 100Q295.07 94.78 296.17 90.95Q297.27 87.13 299.22 84.63Q301.17 82.13 303.83 80.90Q306.48 79.68 309.59 79.68L309.59 79.68Q312.69 79.68 315.38 80.90Q318.06 82.13 320.02 84.63Q321.99 87.13 323.10 90.95Q324.22 94.78 324.22 100ZM317.20 100L317.20 100Q317.20 95.68 316.57 92.85Q315.94 90.02 314.88 88.34Q313.82 86.66 312.45 85.99Q311.07 85.31 309.59 85.31L309.59 85.31Q308.13 85.31 306.77 85.99Q305.41 86.66 304.36 88.34Q303.32 90.02 302.70 92.85Q302.08 95.68 302.08 100L302.08 100Q302.08 104.32 302.70 107.15Q303.32 109.98 304.36 111.66Q305.41 113.34 306.77 114.01Q308.13 114.69 309.59 114.69L309.59 114.69Q311.07 114.69 312.45 114.01Q313.82 113.34 314.88 111.66Q315.94 109.98 316.57 107.15Q317.20 104.32 317.20 100Z" fill="#999999"/></svg>