<svg xmlns="http://www.w3.org/2000/svg" xmlns:xlink="http://www.w3.org/1999/xlink" width="500" zoomAndPan="magnify" viewBox="0 0 375 149.999998" height="200" preserveAspectRatio="xMidYMid meet" version="1.0"><defs><g/></defs><g fill="#0f1120" fill-opacity="1"><g transform="translate(39.905313, 72.611493)"><g><path d="M 34.152344 -47.765625 L -0.398438 -47.765625 L -0.398438 -38.453125 L 11.703125 -38.453125 L 11.703125 0 L 22.132812 0 L 22.132812 -38.453125 L 34.152344 -38.453125 Z M 34.152344 -47.765625 "/></g></g></g><g fill="#0f1120" fill-opacity="1"><g transform="translate(76.461233, 72.611493)"><g><path d="M 33.835938 -38.53125 L 33.835938 -47.765625 L 5.09375 -47.765625 L 5.09375 0 L 33.835938 0 L 33.835938 -9.234375 L 15.605469 -9.234375 L 15.605469 -19.265625 L 31.207031 -19.265625 L 31.207031 -28.5 L 15.605469 -28.5 L 15.605469 -38.53125 Z M 33.835938 -38.53125 "/></g></g></g><g fill="#0f1120" fill-opacity="1"><g transform="translate(116.36065, 72.611493)"><g><path d="M 27.464844 0.636719 C 36.9375 0.636719 45.140625 -4.695312 49.199219 -12.5 L 40.125 -17.195312 C 37.816406 -12.65625 33.117188 -9.632812 27.464844 -9.632812 C 19.425781 -9.632812 13.296875 -15.84375 13.296875 -23.882812 C 13.296875 -31.925781 19.425781 -38.132812 27.464844 -38.132812 C 33.117188 -38.132812 37.816406 -35.109375 40.125 -30.570312 L 49.199219 -35.269531 C 45.140625 -43.070312 36.9375 -48.402344 27.464844 -48.402344 C 13.933594 -48.402344 2.945312 -37.417969 2.945312 -23.882812 C 2.945312 -10.347656 13.933594 0.636719 27.464844 0.636719 Z M 27.464844 0.636719 "/></g></g></g><g fill="#0f1120" fill-opacity="1"><g transform="translate(170.430096, 72.611493)"><g><path d="M 34.628906 -47.765625 L 34.628906 -28.582031 L 15.207031 -28.582031 L 15.207031 -47.765625 L 4.695312 -47.765625 L 4.695312 0 L 15.207031 0 L 15.207031 -19.265625 L 34.628906 -19.265625 L 34.628906 0 L 45.058594 0 L 45.058594 -47.765625 Z M 34.628906 -47.765625 "/></g></g></g><g fill="#0f1120" fill-opacity="1"><g transform="translate(223.066612, 72.611493)"><g><path d="M 39.007812 -47.765625 L 39.007812 -16.160156 L 15.523438 -47.765625 L 4.695312 -47.765625 L 4.695312 0 L 15.207031 0 L 15.207031 -31.683594 L 38.609375 0 L 49.4375 0 L 49.4375 -47.765625 Z M 39.007812 -47.765625 "/></g></g></g><g fill="#0f1120" fill-opacity="1"><g transform="translate(280.081503, 72.611493)"><g><path d="M 27.464844 0.636719 C 41.078125 0.636719 51.984375 -10.347656 51.984375 -23.882812 C 51.984375 -37.417969 41.078125 -48.402344 27.464844 -48.402344 C 13.933594 -48.402344 2.945312 -37.417969 2.945312 -23.882812 C 2.945312 -10.347656 13.933594 0.636719 27.464844 0.636719 Z M 27.464844 -9.632812 C 19.425781 -9.632812 13.296875 -15.84375 13.296875 -23.882812 C 13.296875 -31.925781 19.425781 -38.132812 27.464844 -38.132812 C 35.585938 -38.132812 41.714844 -31.925781 41.714844 -23.882812 C 41.714844 -15.84375 35.585938 -9.632812 27.464844 -9.632812 Z M 27.464844 -9.632812 "/></g></g></g><g fill="#0f1120" fill-opacity="1"><g transform="translate(3.023659, 124.93177)"><g><path d="M 7.644531 0.273438 C 11.125 0.273438 13.957031 -1.808594 13.957031 -5.390625 C 13.957031 -12.351562 3.992188 -10.644531 3.992188 -15.527344 C 3.992188 -17.574219 5.664062 -18.5625 7.574219 -18.5625 C 9.144531 -18.5625 10.441406 -17.914062 11.261719 -16.753906 L 12.964844 -18.1875 C 11.839844 -19.621094 9.859375 -20.746094 7.507812 -20.746094 C 4.367188 -20.746094 1.808594 -18.699219 1.808594 -15.355469 C 1.808594 -8.769531 11.773438 -10.40625 11.773438 -5.324219 C 11.773438 -3.140625 9.964844 -1.910156 7.675781 -1.910156 C 5.355469 -1.910156 3.683594 -3.171875 2.96875 -5.050781 L 0.988281 -3.890625 C 2.046875 -1.363281 4.605469 0.273438 7.644531 0.273438 Z M 7.644531 0.273438 "/></g></g></g><g fill="#0f1120" fill-opacity="1"><g transform="translate(27.113947, 124.93177)"><g><path d="M 12.179688 0.273438 C 18.015625 0.273438 22.691406 -4.4375 22.691406 -10.238281 C 22.691406 -16.039062 18.015625 -20.746094 12.179688 -20.746094 C 6.378906 -20.746094 1.671875 -16.039062 1.671875 -10.238281 C 1.671875 -4.4375 6.378906 0.273438 12.179688 0.273438 Z M 12.179688 -1.910156 C 7.574219 -1.910156 3.855469 -5.597656 3.855469 -10.238281 C 3.855469 -14.878906 7.574219 -18.5625 12.179688 -18.5625 C 16.820312 -18.5625 20.507812 -14.878906 20.507812 -10.238281 C 20.507812 -5.597656 16.820312 -1.910156 12.179688 -1.910156 Z M 12.179688 -1.910156 "/></g></g></g><g fill="#0f1120" fill-opacity="1"><g transform="translate(60.656016, 124.93177)"><g><path d="M 13.855469 -18.359375 L 13.855469 -20.472656 L 2.660156 -20.472656 L 2.660156 0 L 4.84375 0 L 4.84375 -9.179688 L 12.695312 -9.179688 L 12.695312 -11.292969 L 4.84375 -11.292969 L 4.84375 -18.359375 Z M 13.855469 -18.359375 "/></g></g></g><g fill="#0f1120" fill-opacity="1"><g transform="translate(84.268598, 124.93177)"><g><path d="M 13.820312 -20.472656 L 0.308594 -20.472656 L 0.308594 -18.289062 L 5.972656 -18.289062 L 5.972656 0 L 8.15625 0 L 8.15625 -18.289062 L 13.820312 -18.289062 Z M 13.820312 -20.472656 "/></g></g></g><g fill="#0f1120" fill-opacity="1"><g transform="translate(107.539965, 124.93177)"><g><path d="M 25.558594 -20.472656 L 20.300781 -3.652344 L 15.320312 -20.472656 L 12.25 -20.472656 L 7.335938 -3.683594 L 2.117188 -20.472656 L -0.203125 -20.472656 L 6.210938 0 L 8.53125 0 L 13.785156 -18.152344 L 19.140625 0 L 21.429688 0 L 27.808594 -20.472656 Z M 25.558594 -20.472656 "/></g></g></g><g fill="#0f1120" fill-opacity="1"><g transform="translate(144.289482, 124.93177)"><g><path d="M 14.84375 0 L 17.230469 0 L 9.828125 -20.472656 L 7.40625 -20.472656 L 0 0 L 2.386719 0 L 4.058594 -4.777344 L 13.171875 -4.777344 Z M 4.777344 -6.859375 L 8.632812 -17.878906 L 12.453125 -6.859375 Z M 4.777344 -6.859375 "/></g></g></g><g fill="#0f1120" fill-opacity="1"><g transform="translate(170.665937, 124.93177)"><g><path d="M 10.78125 -9.347656 C 13.476562 -9.726562 15.527344 -11.976562 15.527344 -14.742188 C 15.527344 -17.949219 12.964844 -20.472656 9.828125 -20.472656 L 2.492188 -20.472656 L 2.492188 0 L 4.675781 0 L 4.675781 -9.246094 L 8.53125 -9.246094 L 14.332031 0 L 16.820312 0 Z M 4.675781 -11.328125 L 4.675781 -18.289062 L 9.691406 -18.289062 C 11.738281 -18.289062 13.339844 -16.855469 13.339844 -14.808594 C 13.339844 -12.726562 11.773438 -11.328125 9.691406 -11.328125 Z M 4.675781 -11.328125 "/></g></g></g><g fill="#0f1120" fill-opacity="1"><g transform="translate(196.940031, 124.93177)"><g><path d="M 13.855469 -18.359375 L 13.855469 -20.472656 L 2.660156 -20.472656 L 2.660156 0 L 13.855469 0 L 13.855469 -2.117188 L 4.84375 -2.117188 L 4.84375 -9.179688 L 12.695312 -9.179688 L 12.695312 -11.292969 L 4.84375 -11.292969 L 4.84375 -18.359375 Z M 13.855469 -18.359375 "/></g></g></g><g fill="#0f1120" fill-opacity="1"><g transform="translate(221.98573, 124.93177)"><g/></g></g><g fill="#0f1120" fill-opacity="1"><g transform="translate(239.353968, 124.93177)"><g><path d="M 15.96875 -20.472656 L 15.96875 -11.328125 L 4.675781 -11.328125 L 4.675781 -20.472656 L 2.492188 -20.472656 L 2.492188 0 L 4.675781 0 L 4.675781 -9.144531 L 15.96875 -9.144531 L 15.96875 0 L 18.152344 0 L 18.152344 -20.472656 Z M 15.96875 -20.472656 "/></g></g></g><g fill="#0f1120" fill-opacity="1"><g transform="translate(269.142609, 124.93177)"><g><path d="M 12.179688 0.273438 C 18.015625 0.273438 22.691406 -4.4375 22.691406 -10.238281 C 22.691406 -16.039062 18.015625 -20.746094 12.179688 -20.746094 C 6.378906 -20.746094 1.671875 -16.039062 1.671875 -10.238281 C 1.671875 -4.4375 6.378906 0.273438 12.179688 0.273438 Z M 12.179688 -1.910156 C 7.574219 -1.910156 3.855469 -5.597656 3.855469 -10.238281 C 3.855469 -14.878906 7.574219 -18.5625 12.179688 -18.5625 C 16.820312 -18.5625 20.507812 -14.878906 20.507812 -10.238281 C 20.507812 -5.597656 16.820312 -1.910156 12.179688 -1.910156 Z M 12.179688 -1.910156 "/></g></g></g><g fill="#0f1120" fill-opacity="1"><g transform="translate(302.68469, 124.93177)"><g><path d="M 10.066406 0.273438 C 14.535156 0.273438 17.777344 -2.695312 17.777344 -6.722656 L 17.777344 -20.472656 L 15.59375 -20.472656 L 15.59375 -7.0625 C 15.59375 -4.09375 13.238281 -1.910156 10.066406 -1.910156 C 6.894531 -1.910156 4.574219 -4.09375 4.574219 -7.0625 L 4.574219 -20.472656 L 2.386719 -20.472656 L 2.386719 -6.722656 C 2.386719 -2.695312 5.628906 0.273438 10.066406 0.273438 Z M 10.066406 0.273438 "/></g></g></g><g fill="#0f1120" fill-opacity="1"><g transform="translate(331.995625, 124.93177)"><g><path d="M 7.644531 0.273438 C 11.125 0.273438 13.957031 -1.808594 13.957031 -5.390625 C 13.957031 -12.351562 3.992188 -10.644531 3.992188 -15.527344 C 3.992188 -17.574219 5.664062 -18.5625 7.574219 -18.5625 C 9.144531 -18.5625 10.441406 -17.914062 11.261719 -16.753906 L 12.964844 -18.1875 C 11.839844 -19.621094 9.859375 -20.746094 7.507812 -20.746094 C 4.367188 -20.746094 1.808594 -18.699219 1.808594 -15.355469 C 1.808594 -8.769531 11.773438 -10.40625 11.773438 -5.324219 C 11.773438 -3.140625 9.964844 -1.910156 7.675781 -1.910156 C 5.355469 -1.910156 3.683594 -3.171875 2.96875 -5.050781 L 0.988281 -3.890625 C 2.046875 -1.363281 4.605469 0.273438 7.644531 0.273438 Z M 7.644531 0.273438 "/></g></g></g><g fill="#0f1120" fill-opacity="1"><g transform="translate(356.0859, 124.93177)"><g><path d="M 13.855469 -18.359375 L 13.855469 -20.472656 L 2.660156 -20.472656 L 2.660156 0 L 13.855469 0 L 13.855469 -2.117188 L 4.84375 -2.117188 L 4.84375 -9.179688 L 12.695312 -9.179688 L 12.695312 -11.292969 L 4.84375 -11.292969 L 4.84375 -18.359375 Z M 13.855469 -18.359375 "/></g></g></g></svg>